<svg width="23" height="19" viewBox="0 0 23 19" fill="none" xmlns="http://www.w3.org/2000/svg">
<path d="M0 2.5C0 1.12109 1.12109 0 2.5 0H13.75C15.1289 0 16.25 1.12109 16.25 2.5V3.75H18.2305C18.8945 3.75 19.5312 4.01172 20 4.48047L21.7695 6.25C22.2383 6.71875 22.5 7.35547 22.5 8.01953V13.75C22.5 15.1289 21.3789 16.25 20 16.25H19.8711C19.4648 17.6914 18.1367 18.75 16.5625 18.75C14.9883 18.75 13.6641 17.6914 13.2539 16.25H9.24609C8.83984 17.6914 7.51172 18.75 5.9375 18.75C4.36328 18.75 3.03906 17.6914 2.62891 16.25H2.5C1.12109 16.25 0 15.1289 0 13.75V2.5ZM20 10V8.01953L18.2305 6.25H16.25V10H20ZM7.5 15.3125C7.5 14.8981 7.33538 14.5007 7.04235 14.2076C6.74933 13.9146 6.3519 13.75 5.9375 13.75C5.5231 13.75 5.12567 13.9146 4.83265 14.2076C4.53962 14.5007 4.375 14.8981 4.375 15.3125C4.375 15.7269 4.53962 16.1243 4.83265 16.4174C5.12567 16.7104 5.5231 16.875 5.9375 16.875C6.3519 16.875 6.74933 16.7104 7.04235 16.4174C7.33538 16.1243 7.5 15.7269 7.5 15.3125ZM16.5625 16.875C16.9769 16.875 17.3743 16.7104 17.6674 16.4174C17.9604 16.1243 18.125 15.7269 18.125 15.3125C18.125 14.8981 17.9604 14.5007 17.6674 14.2076C17.3743 13.9146 16.9769 13.75 16.5625 13.75C16.1481 13.75 15.7507 13.9146 15.4576 14.2076C15.1646 14.5007 15 14.8981 15 15.3125C15 15.7269 15.1646 16.1243 15.4576 16.4174C15.7507 16.7104 16.1481 16.875 16.5625 16.875Z" fill="#2B7FFF"/>
</svg>
